<svg xmlns="http://www.w3.org/2000/svg" viewBox="0 0 79.88 60.98"><defs><style>.cls-1{fill:#fff;}</style></defs><g id="Layer_2" data-name="Layer 2"><g id="Layer_1-2" data-name="Layer 1"><path class="cls-1" d="M0,12.1C1,10,2,9.62,4.94,10V45.15a7.66,7.66,0,0,0,1.61,5.09A7.43,7.43,0,0,0,12,53c2.64.2,5.3.33,7.9.78a26.6,26.6,0,0,1,12.32,5.29c.37.29.72.6,1.07.91a1.89,1.89,0,0,1,.26.28c-1.6-.28-3.11-.58-4.63-.79a54.24,54.24,0,0,0-13.53-.28c-3.89.44-7.76,1.11-11.62,1.72C1.92,61.2.92,60.67,0,58.74Z"/><path class="cls-1" d="M37.7,58c-.63-.57-1.14-1.07-1.68-1.54a31.2,31.2,0,0,0-16.16-7.16c-2.43-.36-4.9-.49-7.36-.65-2-.14-3.13-1.22-3.13-3.21q0-21.13,0-42.26a2.86,2.86,0,0,1,3-3.13A39,39,0,0,1,24.49,1.92,23.23,23.23,0,0,1,37,11.31a4.25,4.25,0,0,1,.69,2.17q.06,21.94,0,43.89C37.73,57.52,37.72,57.67,37.7,58Z"/><path class="cls-1" d="M42.15,57.81V56.9c0-14,0-28.07,0-42.1A7.73,7.73,0,0,1,44,9.64,24.94,24.94,0,0,1,59.16.92,71.12,71.12,0,0,1,67.43,0c1.88-.14,3.08,1.18,3.08,3.19q0,16.7,0,33.37c0,2.92,0,5.83,0,8.74a2.93,2.93,0,0,1-3.22,3.26,42.37,42.37,0,0,0-14.78,2.67,28.22,28.22,0,0,0-9.74,6.17l-.4.37S42.28,57.8,42.15,57.81Z"/><path class="cls-1" d="M74.94,10a20.12,20.12,0,0,1,2.7,0,2.76,2.76,0,0,1,2.22,2.5c0,.26,0,.52,0,.78V57.63c0,.21,0,.41,0,.62A2.78,2.78,0,0,1,76.65,61c-2.06-.32-4.08-.8-6.13-1.11a68.12,68.12,0,0,0-24.2.29c.89-.68,1.74-1.41,2.66-2a29,29,0,0,1,12.76-4.63c2-.27,4.09-.35,6.14-.48a7.2,7.2,0,0,0,6.79-5.45A9.87,9.87,0,0,0,74.93,45q0-17,0-34Z"/></g></g></svg>