<svg xmlns="http://www.w3.org/2000/svg" viewBox="0 0 379.29 60.98"><defs><style>.cls-1{fill:#8b008b}.cls-2{fill:navy}.cls-3{fill:#231f20}</style></defs><g id="Layer_2" data-name="Layer 2"><g id="Layer_1-2" data-name="Layer 1"><path d="M0,12.1C1,10,2,9.62,4.94,10V45.15a7.66,7.66,0,0,0,1.61,5.09A7.43,7.43,0,0,0,12,53c2.64.2,5.3.33,7.9.78a26.6,26.6,0,0,1,12.32,5.29c.37.29.72.6,1.07.91a1.89,1.89,0,0,1,.26.28c-1.6-.28-3.11-.58-4.63-.79a54.24,54.24,0,0,0-13.53-.28c-3.89.44-7.76,1.11-11.62,1.72C1.92,61.2.92,60.67,0,58.74Z" class="cls-1"/><path d="M37.7,58c-.63-.57-1.14-1.07-1.68-1.54a31.2,31.2,0,0,0-16.16-7.16c-2.43-.36-4.9-.49-7.36-.65-2-.14-3.13-1.22-3.13-3.21q0-21.13,0-42.26a2.86,2.86,0,0,1,3-3.13A39,39,0,0,1,24.49,1.92,23.23,23.23,0,0,1,37,11.31a4.25,4.25,0,0,1,.69,2.17q.06,21.94,0,43.89C37.73,57.52,37.72,57.67,37.7,58Z" class="cls-2"/><path d="M42.15,57.81V56.9c0-14,0-28.07,0-42.1A7.73,7.73,0,0,1,44,9.64,24.94,24.94,0,0,1,59.16.92,71.12,71.12,0,0,1,67.43,0c1.88-.14,3.08,1.18,3.08,3.19q0,16.7,0,33.37c0,2.92,0,5.83,0,8.74a2.93,2.93,0,0,1-3.22,3.26,42.37,42.37,0,0,0-14.78,2.67,28.22,28.22,0,0,0-9.74,6.17l-.4.37S42.28,57.8,42.15,57.81Z" class="cls-2"/><path d="M74.94,10a20.12,20.12,0,0,1,2.7,0,2.76,2.76,0,0,1,2.22,2.5c0,.26,0,.52,0,.78V57.63c0,.21,0,.41,0,.62A2.78,2.78,0,0,1,76.65,61c-2.06-.32-4.08-.8-6.13-1.11a68.12,68.12,0,0,0-24.2.29c.89-.68,1.74-1.41,2.66-2a29,29,0,0,1,12.76-4.63c2-.27,4.09-.35,6.14-.48a7.2,7.2,0,0,0,6.79-5.45A9.87,9.87,0,0,0,74.93,45q0-17,0-34Z" class="cls-1"/><path d="M108.69,43.34a1.48,1.48,0,0,1-1.49-1.5V15.25a1.48,1.48,0,0,1,1.49-1.5H122.8a1.37,1.37,0,0,1,0,2.73H110.19V27.07h9.67a1.37,1.37,0,0,1,0,2.73h-9.67V40.61h13.1a1.37,1.37,0,0,1,0,2.73Z" class="cls-3"/><path d="M132.12,24.43v1.41a6.9,6.9,0,0,1,6-3.08c5.71,0,9.19,3.34,9.19,10.55s-3.48,10.6-9.19,10.6a7,7,0,0,1-6-3.08v9.94a1.41,1.41,0,0,1-2.81,0V24.43a1.41,1.41,0,0,1,2.81,0Zm6,16.93c4,0,6.33-2.55,6.33-8s-2.38-8-6.42-8c-3.25,0-6,2.29-6,8S134.67,41.36,138.1,41.36Z" class="cls-3"/><path d="M159.42,22.76c7,0,8.39,5.59,8.39,8.58,0,1.27,0,2.81-1.76,2.81H153.22c0,4.35,2.5,7.17,6.64,7.17a8,8,0,0,0,5.27-1.9,1.25,1.25,0,0,1,.79-.26,1.28,1.28,0,0,1,1.28,1.28,1.32,1.32,0,0,1-.49,1,9.77,9.77,0,0,1-6.85,2.46c-5.85,0-9.5-3.21-9.5-10.6C150.36,26.54,153.7,22.76,159.42,22.76Zm0,2.55c-3.83,0-5.94,2.47-6.2,6.38H165C165,28.52,163.94,25.31,159.42,25.31Z" class="cls-3"/><path d="M175,26.37c.87-2,3.07-3.52,6.11-3.52a1.37,1.37,0,0,1,0,2.73c-4.05,0-6.11,2.81-6.11,6.85v9.85a1.41,1.41,0,1,1-2.82,0V24.43a1.41,1.41,0,0,1,2.82,0Z" class="cls-3"/><path d="M188.56,24.43v1.41a6.9,6.9,0,0,1,6-3.08c5.71,0,9.18,3.34,9.18,10.55s-3.47,10.6-9.18,10.6a7,7,0,0,1-6-3.08v9.94a1.41,1.41,0,0,1-2.82,0V24.43a1.41,1.41,0,0,1,2.82,0Zm6,16.93c4,0,6.33-2.55,6.33-8s-2.38-8-6.42-8c-3.25,0-6,2.29-6,8S191.11,41.36,194.54,41.36Z" class="cls-3"/><path d="M210.27,24.43V35.91c0,2.86.93,5.32,5.37,5.32S221,38.77,221,35.91V24.43a1.42,1.42,0,0,1,1.45-1.4,1.37,1.37,0,0,1,1.36,1.4V35.91c0,4.17-1.36,8-8.17,8s-8.18-3.83-8.18-8V24.43a1.38,1.38,0,0,1,1.41-1.4A1.41,1.41,0,0,1,210.27,24.43Z" class="cls-3"/><path d="M231.42,28.13c0,4.61,11.56,2.9,11.56,9.93,0,4-3.3,5.8-7.48,5.8A9.87,9.87,0,0,1,228,40.7a1.33,1.33,0,0,1-.31-.84A1.27,1.27,0,0,1,229,38.59a1.35,1.35,0,0,1,1,.44,7.44,7.44,0,0,0,5.58,2.15c2.51,0,4.66-.83,4.66-3.12,0-4.53-11.56-2.72-11.56-9.93,0-3.65,3-5.32,6.73-5.32,3,0,5.32,1,6.68,2.81a1.36,1.36,0,0,1,.31.84A1.27,1.27,0,0,1,241,27.73a1.24,1.24,0,0,1-.92-.39,6.23,6.23,0,0,0-4.79-1.85C233.35,25.49,231.42,26.1,231.42,28.13Z" class="cls-3"/><path d="M257.79,16.57a1.41,1.41,0,0,1,0-2.82h18.68a1.41,1.41,0,0,1,0,2.82h-7.82V42.19a1.5,1.5,0,1,1-3,0V16.57Z" class="cls-3"/><path d="M280.12,27.64a1.43,1.43,0,0,1-1.14.62A1.28,1.28,0,0,1,277.7,27a1.37,1.37,0,0,1,.22-.74c1.23-1.94,3.61-3.48,7.3-3.48,5.1,0,7.91,3,7.91,7.48V42.33a1.36,1.36,0,1,1-2.72,0V40.74c-1.1,2.07-3.65,3.17-6.29,3.17-4.66,0-7.61-2.24-7.61-6.29,0-3.87,2.95-6.2,7.7-6.2h6.2V30.24c0-3-2-4.84-5.19-4.84A6.08,6.08,0,0,0,280.12,27.64Zm10.29,8.09V33.89h-6.2c-2.86,0-4.84,1.18-4.84,3.73,0,2.29,1.58,3.74,5,3.74C287.46,41.36,290.41,39.47,290.41,35.73Z" class="cls-3"/><path d="M311.68,43l-7.78-10-2.68,2.15v7.08a1.41,1.41,0,0,1-2.82,0V13.44a1.41,1.41,0,0,1,2.82,0V31.86l10.37-8.48A1.44,1.44,0,0,1,314,24.43a1.45,1.45,0,0,1-.58,1.15l-7.2,5.76L314,41.4a1.3,1.3,0,0,1,.31.88,1.4,1.4,0,0,1-1.41,1.41A1.53,1.53,0,0,1,311.68,43Z" class="cls-3"/><path d="M320.56,27.64a1.43,1.43,0,0,1-1.15.62A1.27,1.27,0,0,1,318.14,27a1.37,1.37,0,0,1,.22-.74c1.23-1.94,3.6-3.48,7.3-3.48,5.1,0,7.91,3,7.91,7.48V42.33a1.37,1.37,0,0,1-2.73,0V40.74c-1.09,2.07-3.64,3.17-6.28,3.17-4.66,0-7.61-2.24-7.61-6.29,0-3.87,2.95-6.2,7.7-6.2h6.19V30.24c0-3-2-4.84-5.18-4.84A6.08,6.08,0,0,0,320.56,27.64Zm10.28,8.09V33.89h-6.19c-2.86,0-4.84,1.18-4.84,3.73,0,2.29,1.58,3.74,5,3.74C327.9,41.36,330.84,39.47,330.84,35.73Z" class="cls-3"/><path d="M341.66,13.44V38.55c0,1.75.57,2.5,1.76,2.5a1.32,1.32,0,0,1,0,2.64c-2.95,0-4.58-1.76-4.58-5.14V13.44a1.45,1.45,0,0,1,1.41-1.4A1.42,1.42,0,0,1,341.66,13.44Z" class="cls-3"/><path d="M350.71,27.64a1.41,1.41,0,0,1-1.14.62A1.28,1.28,0,0,1,348.29,27a1.37,1.37,0,0,1,.22-.74c1.24-1.94,3.61-3.48,7.3-3.48,5.1,0,7.91,3,7.91,7.48V42.33a1.36,1.36,0,0,1-2.72,0V40.74c-1.1,2.07-3.65,3.17-6.29,3.17-4.66,0-7.6-2.24-7.6-6.29,0-3.87,2.94-6.2,7.69-6.2H361V30.24c0-3-2-4.84-5.19-4.84A6.09,6.09,0,0,0,350.71,27.64ZM361,35.73V33.89h-6.2c-2.86,0-4.83,1.18-4.83,3.73,0,2.29,1.58,3.74,5,3.74C358.05,41.36,361,39.47,361,35.73Z" class="cls-3"/><path d="M371.81,26.37a6.36,6.36,0,0,1,6.11-3.52,1.37,1.37,0,1,1,0,2.73c-4,0-6.11,2.81-6.11,6.85v9.85a1.41,1.41,0,1,1-2.81,0V24.43a1.41,1.41,0,0,1,2.81,0Z" class="cls-3"/></g></g></svg>